<svg width="16" height="14" viewBox="0 0 16 14" fill="none" xmlns="http://www.w3.org/2000/svg">
<path d="M6.80357 1.09058L7.59643 0.396826C7.93214 0.103076 8.475 0.103076 8.80714 0.396826L15.75 6.4687C16.0857 6.76245 16.0857 7.23745 15.75 7.52808L8.80714 13.6031C8.47143 13.8968 7.92857 13.8968 7.59643 13.6031L6.80357 12.9093C6.46429 12.6125 6.47143 12.1281 6.81786 11.8375L11.1214 8.24995H0.857143C0.382143 8.24995 0 7.91558 0 7.49995V6.49995C0 6.08433 0.382143 5.74995 0.857143 5.74995H11.1214L6.81786 2.16245C6.46786 1.87183 6.46071 1.38745 6.80357 1.09058Z" fill="#CFE845"/>
</svg>
