<svg width="22" height="22" viewBox="0 0 22 22" fill="none" xmlns="http://www.w3.org/2000/svg"><path d="M19.643.5H2.357C1.732.5 1.132.737.69 1.159A2.2 2.2 0 000 2.75v16.5a2.2 2.2 0 00.69 1.591 2.416 2.416 0 001.667.659h6.74v-7.14H6.003V11h3.094V8.439c0-2.914 1.817-4.523 4.6-4.523 1.333 0 2.726.227 2.726.227v2.86h-1.535c-1.513 0-1.985.896-1.985 1.815V11h3.377l-.54 3.36h-2.837v7.14h6.74c.625 0 1.225-.237 1.667-.659A2.2 2.2 0 0022 19.25V2.75a2.2 2.2 0 00-.69-1.591A2.415 2.415 0 0019.643.5z" fill="#CFE845"/></svg>