<svg width="22" height="22" viewBox="0 0 22 22" fill="none" xmlns="http://www.w3.org/2000/svg"><path d="M19.643.5H2.357C1.056.5 0 1.508 0 2.75v16.5c0 1.242 1.056 2.25 2.357 2.25h17.286c1.301 0 2.357-1.008 2.357-2.25V2.75C22 1.508 20.944.5 19.643.5zM17.24 7.944c.01.131.01.267.01.398 0 4.064-3.24 8.747-9.163 8.747a9.44 9.44 0 01-4.945-1.378c.26.028.51.037.776.037a6.655 6.655 0 003.997-1.312c-1.414-.028-2.603-.914-3.01-2.133.496.07.943.07 1.453-.056-1.473-.286-2.578-1.524-2.578-3.019v-.037c.427.23.928.37 1.454.389A3.124 3.124 0 014.18 8.472 2.957 2.957 0 013.8 7.02c0-.572.157-1.097.437-1.551 1.586 1.865 3.968 3.084 6.64 3.215-.457-2.086 1.178-3.778 3.142-3.778.928 0 1.763.37 2.352.97a6.498 6.498 0 002.043-.74A3.096 3.096 0 0117 6.828a6.65 6.65 0 001.856-.478 6.617 6.617 0 01-1.616 1.594z" fill="#CFE845"/></svg>