<svg width="22" height="22" viewBox="0 0 22 22" fill="none" xmlns="http://www.w3.org/2000/svg"><path fill="#0E1430" d="M2 1h19v20H2z"/><path d="M20.429.5H1.567C.702.5 0 1.18 0 2.014v17.972C0 20.82.702 21.5 1.567 21.5h18.862c.864 0 1.571-.68 1.571-1.514V2.014C22 1.18 21.293.5 20.429.5zm-13.78 18H3.39V8.478h3.265V18.5H6.65zM5.02 7.11c-1.046 0-1.89-.812-1.89-1.805 0-.994.844-1.805 1.89-1.805 1.04 0 1.89.81 1.89 1.805 0 .998-.844 1.804-1.89 1.804zM18.872 18.5h-3.26v-4.875c0-1.162-.025-2.658-1.695-2.658-1.7 0-1.96 1.266-1.96 2.574V18.5h-3.26V8.478h3.128v1.369h.044c.437-.788 1.503-1.617 3.089-1.617 3.3 0 3.914 2.076 3.914 4.776V18.5z" fill="#CFE845"/></svg>